# xmcd
#
# Track frame offsets: 
#        150
#        19540
#        36505
#        57515
#        68662
#        84444
#        99530
#        111896
#        126177
#        140405
#        153266
#        166377
#        176957
#        193453
#        207310
#        220983
#
# Disc length: 3225 seconds
#
# Revision: 0
# Processed by: cddbd v1.4PL0 Copyright (c) Steve Scherf et al.
# Submitted via: ExactAudioCopy v0.90a11
#
DISCID=ee0c9710
DTITLE=Doug Church - Kingtinued
DYEAR=1900
DGENRE=
TTITLE0=Ain't Goin' Down
TTITLE1=Seven Spanish Angels
TTITLE2=Sweet Home Alabama
TTITLE3=Chattahoochie
TTITLE4=The Dance
TTITLE5=Good Time Charlie's Got the Blues
TTITLE6=Love Me
TTITLE7=Luchenbach, Texas
TTITLE8=I Like It, I Love It
TTITLE9=7 Bridges Road
TTITLE10=Always on My Mind
TTITLE11=On the Road Again
TTITLE12=The Gambler
TTITLE13=It's Your Baby, You Rock It
TTITLE14=Honky Tonk Angel
TTITLE15=The Thunder Rolls
EXTD=
EXTT0=
EXTT1=
EXTT2=
EXTT3=
EXTT4=
EXTT5=
EXTT6=
EXTT7=
EXTT8=
EXTT9=
EXTT10=
EXTT11=
EXTT12=
EXTT13=
EXTT14=
EXTT15=
PLAYORDER=
